# xmcd CD database file
#
# Track frame offsets:
#	150
#	28191
#	51100
#	95071
#	120865
#	150133
#	165084
#	191988
#	238389
#	263591
#	281232
#	310566
#
# Disc length: 4512 seconds
#
# Revision: 0
# Processed by: cddbd v1.5.2PL0 Copyright (c) Steve Scherf et al.
# Submitted via: CDex 1.51
#
DISCID=96119e0c
DTITLE=The Arizona Roadrunner - Live at China Rose
DYEAR=2007
DGENRE=Jazz
TTITLE0=Once in a While
TTITLE1=Margie
TTITLE2=Caravan
TTITLE3=West End Blues
TTITLE4=Struttin' With Some Barbeque
TTITLE5=Rosetta
TTITLE6=Blues My Naughty Sweetie Gives to Me
TTITLE7=Tin Roof Blues
TTITLE8=Shake That Thing
TTITLE9=At The Jazz Band Ball
TTITLE10=St. James Infirmary
TTITLE11=Some of These Days
EXTD=YEAR: 2007
EXTT0=
EXTT1=
EXTT2=
EXTT3=
EXTT4=
EXTT5=
EXTT6=
EXTT7=
EXTT8=
EXTT9=
EXTT10=
EXTT11=
PLAYORDER=
